<svg width="9" height="9" viewBox="0 0 9 9" fill="none" xmlns="http://www.w3.org/2000/svg">
<path fill-rule="evenodd" clip-rule="evenodd" d="M2.36474 1.21893C2.07355 0.924339 1.60144 0.924339 1.31025 1.21893C1.01906 1.51351 1.01906 1.99113 1.31025 2.28572L3.25004 4.24815C3.63511 4.63771 3.63511 5.26457 3.25004 5.65413L1.21644 7.71146C0.92525 8.00604 0.92525 8.48366 1.21644 8.77825C1.50763 9.07284 1.97974 9.07284 2.27093 8.77825L4.28821 6.73743C4.67966 6.34142 5.31917 6.34142 5.71061 6.73743L7.72779 8.77815C8.01898 9.07274 8.49109 9.07274 8.78228 8.77815C9.07347 8.48356 9.07347 8.00594 8.78228 7.71136L6.74879 5.65413C6.36371 5.26457 6.36372 4.63771 6.74879 4.24814L8.68848 2.28582C8.97966 1.99124 8.97967 1.51361 8.68848 1.21903C8.39729 0.92444 7.92517 0.924441 7.63399 1.21903L5.71061 3.16485C5.31917 3.56086 4.67966 3.56086 4.28821 3.16485L2.36474 1.21893Z" fill="#555555" fill-opacity="1"/>
</svg>
